<mxfile host="app.diagrams.net" modified="2022-11-13T09:20:33.331Z" agent="5.0 (Windows NT 10.0; Win64; x64) AppleWebKit/537.36 (KHTML, like Gecko) Chrome/107.0.0.0 Safari/537.36" etag="fZLGbjoOvuHlWkHx_sBd" version="20.5.3" type="github">
  <diagram id="CxQfbasi5NkKN1bEu-eG" name="第 1 页">
    <mxGraphModel dx="813" dy="454" grid="1" gridSize="10" guides="1" tooltips="1" connect="1" arrows="1" fold="1" page="1" pageScale="1" pageWidth="827" pageHeight="1169" math="0" shadow="0">
      <root>
        <mxCell id="0" />
        <mxCell id="1" parent="0" />
        <mxCell id="0fUFCASxd9dFvIg816kN-2" value="&lt;span style=&quot;font-size: 16px;&quot;&gt;颜色太浅啦！&lt;/span&gt;" style="rounded=1;whiteSpace=wrap;html=1;strokeWidth=2;fillWeight=4;hachureGap=8;hachureAngle=45;fillColor=#fff2cc;sketch=1;strokeColor=#d6b656;horizontal=1;verticalAlign=middle;" vertex="1" parent="1">
          <mxGeometry x="210" y="190" width="150" height="80" as="geometry" />
        </mxCell>
        <mxCell id="0fUFCASxd9dFvIg816kN-3" value="" style="rounded=1;whiteSpace=wrap;html=1;fontSize=16;sketch=0;glass=0;shadow=0;" vertex="1" parent="1">
          <mxGeometry x="160" y="310" width="120" height="60" as="geometry" />
        </mxCell>
        <mxCell id="0fUFCASxd9dFvIg816kN-4" value="" style="rounded=0;whiteSpace=wrap;html=1;fontSize=16;" vertex="1" parent="1">
          <mxGeometry x="400" y="230" width="260" height="240" as="geometry" />
        </mxCell>
        <mxCell id="0fUFCASxd9dFvIg816kN-5" value="" style="rounded=0;whiteSpace=wrap;html=1;fontSize=16;" vertex="1" parent="1">
          <mxGeometry x="400" y="230" width="130" height="60" as="geometry" />
        </mxCell>
        <mxCell id="0fUFCASxd9dFvIg816kN-6" value="" style="rounded=0;whiteSpace=wrap;html=1;fontSize=16;" vertex="1" parent="1">
          <mxGeometry x="530" y="230" width="130" height="60" as="geometry" />
        </mxCell>
        <mxCell id="0fUFCASxd9dFvIg816kN-7" value="" style="rounded=0;whiteSpace=wrap;html=1;fontSize=16;" vertex="1" parent="1">
          <mxGeometry x="400" y="290" width="130" height="60" as="geometry" />
        </mxCell>
        <mxCell id="0fUFCASxd9dFvIg816kN-8" value="" style="rounded=0;whiteSpace=wrap;html=1;fontSize=16;" vertex="1" parent="1">
          <mxGeometry x="530" y="290" width="130" height="60" as="geometry" />
        </mxCell>
        <mxCell id="0fUFCASxd9dFvIg816kN-9" value="" style="rounded=0;whiteSpace=wrap;html=1;fontSize=16;" vertex="1" parent="1">
          <mxGeometry x="400" y="350" width="130" height="60" as="geometry" />
        </mxCell>
        <mxCell id="0fUFCASxd9dFvIg816kN-10" value="" style="rounded=0;whiteSpace=wrap;html=1;fontSize=16;" vertex="1" parent="1">
          <mxGeometry x="530" y="350" width="130" height="60" as="geometry" />
        </mxCell>
        <mxCell id="0fUFCASxd9dFvIg816kN-11" value="" style="rounded=0;whiteSpace=wrap;html=1;fontSize=16;" vertex="1" parent="1">
          <mxGeometry x="400" y="410" width="130" height="60" as="geometry" />
        </mxCell>
        <mxCell id="0fUFCASxd9dFvIg816kN-12" value="" style="rounded=0;whiteSpace=wrap;html=1;fontSize=16;" vertex="1" parent="1">
          <mxGeometry x="530" y="410" width="130" height="60" as="geometry" />
        </mxCell>
        <mxCell id="0fUFCASxd9dFvIg816kN-13" value="" style="shape=process;whiteSpace=wrap;html=1;backgroundOutline=1;rounded=1;shadow=0;glass=0;sketch=0;fontSize=16;" vertex="1" parent="1">
          <mxGeometry x="270" y="290" width="120" height="60" as="geometry" />
        </mxCell>
      </root>
    </mxGraphModel>
  </diagram>
</mxfile>
